REM GENRE Alternative
REM DATE 2008
REM DISCID 9809FF0B
REM COMMENT "ExactAudioCopy v0.99pb4"
PERFORMER "Kings of Leon"
TITLE "Only By the Night"
FILE "Kings of Leon - Only By the Night\Kings of Leon - Closer.wav" WAVE
  TRACK 01 AUDIO
    TITLE "Closer"
    PERFORMER "Kings of Leon"
    INDEX 01 00:00:00
FILE "Kings of Leon - Only By the Night\Kings of Leon - Crawl.wav" WAVE
  TRACK 02 AUDIO
    TITLE "Crawl"
    PERFORMER "Kings of Leon"
    INDEX 01 00:00:00
FILE "Kings of Leon - Only By the Night\Kings of Leon - Sex On Fire.wav" WAVE
  TRACK 03 AUDIO
    TITLE "Sex On Fire"
    PERFORMER "Kings of Leon"
    INDEX 01 00:00:00
FILE "Kings of Leon - Only By the Night\Kings of Leon - Use Somebody.wav" WAVE
  TRACK 04 AUDIO
    TITLE "Use Somebody"
    PERFORMER "Kings of Leon"
    INDEX 01 00:00:00
FILE "Kings of Leon - Only By the Night\Kings of Leon - Manhattan.wav" WAVE
  TRACK 05 AUDIO
    TITLE "Manhattan"
    PERFORMER "Kings of Leon"
    INDEX 01 00:00:00
FILE "Kings of Leon - Only By the Night\Kings of Leon - Revelry.wav" WAVE
  TRACK 06 AUDIO
    TITLE "Revelry"
    PERFORMER "Kings of Leon"
    INDEX 01 00:00:00
FILE "Kings of Leon - Only By the Night\Kings of Leon - 17.wav" WAVE
  TRACK 07 AUDIO
    TITLE "17"
    PERFORMER "Kings of Leon"
    INDEX 01 00:00:00
FILE "Kings of Leon - Only By the Night\Kings of Leon - Notion.wav" WAVE
  TRACK 08 AUDIO
    TITLE "Notion"
    PERFORMER "Kings of Leon"
    INDEX 01 00:00:00
FILE "Kings of Leon - Only By the Night\Kings of Leon - I Want You.wav" WAVE
  TRACK 09 AUDIO
    TITLE "I Want You"
    PERFORMER "Kings of Leon"
    INDEX 01 00:00:00
FILE "Kings of Leon - Only By the Night\Kings of Leon - Be Somebody.wav" WAVE
  TRACK 10 AUDIO
    TITLE "Be Somebody"
    PERFORMER "Kings of Leon"
    INDEX 01 00:00:00
FILE "Kings of Leon - Only By the Night\Kings of Leon - Cold Desert.wav" WAVE
  TRACK 11 AUDIO
    TITLE "Cold Desert"
    PERFORMER "Kings of Leon"
    INDEX 01 00:00:00
